<mxfile host="app.diagrams.net" agent="Mozilla/5.0 (Windows NT 10.0; Win64; x64) AppleWebKit/537.36 (KHTML, like Gecko) Chrome/130.0.0.0 Safari/537.36 Edg/130.0.0.0" version="24.8.3">
  <diagram name="Page-1" id="BM-A3yqFB9D0xhJbBYtY">
    <mxGraphModel dx="1123" dy="670" grid="1" gridSize="10" guides="1" tooltips="1" connect="1" arrows="1" fold="1" page="1" pageScale="1" pageWidth="850" pageHeight="1100" math="0" shadow="0">
      <root>
        <mxCell id="0" />
        <mxCell id="1" parent="0" />
        <mxCell id="9piBWF579ToOeGklcdrz-1" value="tags: string[]" style="text;strokeColor=none;align=center;fillColor=none;html=1;verticalAlign=middle;whiteSpace=wrap;rounded=0;" vertex="1" parent="1">
          <mxGeometry x="40" y="140" width="100" height="30" as="geometry" />
        </mxCell>
        <mxCell id="9piBWF579ToOeGklcdrz-2" value="printReceipt" style="rounded=1;whiteSpace=wrap;html=1;" vertex="1" parent="1">
          <mxGeometry x="160" y="160" width="120" height="390" as="geometry" />
        </mxCell>
        <mxCell id="9piBWF579ToOeGklcdrz-3" value="" style="endArrow=classic;html=1;rounded=0;exitX=-0.023;exitY=0.613;exitDx=0;exitDy=0;entryX=1;entryY=0.25;entryDx=0;entryDy=0;exitPerimeter=0;" edge="1" parent="1">
          <mxGeometry width="50" height="50" relative="1" as="geometry">
            <mxPoint x="160" y="540" as="sourcePoint" />
            <mxPoint x="33" y="541" as="targetPoint" />
          </mxGeometry>
        </mxCell>
        <mxCell id="9piBWF579ToOeGklcdrz-4" value="receipt:string" style="text;strokeColor=none;align=center;fillColor=none;html=1;verticalAlign=middle;whiteSpace=wrap;rounded=0;" vertex="1" parent="1">
          <mxGeometry x="60" y="550" width="80" height="30" as="geometry" />
        </mxCell>
        <mxCell id="9piBWF579ToOeGklcdrz-5" value="" style="endArrow=classic;html=1;rounded=0;" edge="1" parent="1">
          <mxGeometry width="50" height="50" relative="1" as="geometry">
            <mxPoint x="30" y="180" as="sourcePoint" />
            <mxPoint x="160" y="180" as="targetPoint" />
          </mxGeometry>
        </mxCell>
        <mxCell id="9piBWF579ToOeGklcdrz-8" value="loadAllItems" style="rounded=1;whiteSpace=wrap;html=1;" vertex="1" parent="1">
          <mxGeometry x="410" y="170" width="120" height="60" as="geometry" />
        </mxCell>
        <mxCell id="9piBWF579ToOeGklcdrz-9" value="" style="endArrow=classic;html=1;rounded=0;exitX=-0.023;exitY=0.613;exitDx=0;exitDy=0;entryX=1;entryY=0.25;entryDx=0;entryDy=0;exitPerimeter=0;" edge="1" parent="1" source="9piBWF579ToOeGklcdrz-8">
          <mxGeometry width="50" height="50" relative="1" as="geometry">
            <mxPoint x="390" y="200" as="sourcePoint" />
            <mxPoint x="280" y="208" as="targetPoint" />
          </mxGeometry>
        </mxCell>
        <mxCell id="9piBWF579ToOeGklcdrz-11" value="allItems: item[]" style="text;strokeColor=none;align=center;fillColor=none;html=1;verticalAlign=middle;whiteSpace=wrap;rounded=0;" vertex="1" parent="1">
          <mxGeometry x="300" y="180" width="100" height="30" as="geometry" />
        </mxCell>
        <mxCell id="9piBWF579ToOeGklcdrz-12" value="loadPromotions" style="rounded=1;whiteSpace=wrap;html=1;" vertex="1" parent="1">
          <mxGeometry x="490" y="270" width="120" height="60" as="geometry" />
        </mxCell>
        <mxCell id="9piBWF579ToOeGklcdrz-13" value="" style="endArrow=classic;html=1;rounded=0;exitX=-0.023;exitY=0.613;exitDx=0;exitDy=0;entryX=1;entryY=0.25;entryDx=0;entryDy=0;exitPerimeter=0;" edge="1" parent="1" source="9piBWF579ToOeGklcdrz-12">
          <mxGeometry width="50" height="50" relative="1" as="geometry">
            <mxPoint x="390" y="300" as="sourcePoint" />
            <mxPoint x="280" y="308" as="targetPoint" />
          </mxGeometry>
        </mxCell>
        <mxCell id="9piBWF579ToOeGklcdrz-14" value="allPromotions: Promotion[]" style="text;strokeColor=none;align=center;fillColor=none;html=1;verticalAlign=middle;whiteSpace=wrap;rounded=0;" vertex="1" parent="1">
          <mxGeometry x="300" y="280" width="150" height="30" as="geometry" />
        </mxCell>
        <mxCell id="9piBWF579ToOeGklcdrz-15" value="" style="endArrow=classic;html=1;rounded=0;entryX=0;entryY=0.25;entryDx=0;entryDy=0;exitX=1.022;exitY=0.811;exitDx=0;exitDy=0;exitPerimeter=0;" edge="1" parent="1" target="9piBWF579ToOeGklcdrz-17">
          <mxGeometry width="50" height="50" relative="1" as="geometry">
            <mxPoint x="283" y="476" as="sourcePoint" />
            <mxPoint x="410" y="480" as="targetPoint" />
          </mxGeometry>
        </mxCell>
        <mxCell id="9piBWF579ToOeGklcdrz-16" value="allReceipt: receiptItem[]" style="text;strokeColor=none;align=center;fillColor=none;html=1;verticalAlign=middle;whiteSpace=wrap;rounded=0;" vertex="1" parent="1">
          <mxGeometry x="280" y="440" width="170" height="30" as="geometry" />
        </mxCell>
        <mxCell id="9piBWF579ToOeGklcdrz-17" value="render" style="rounded=1;whiteSpace=wrap;html=1;" vertex="1" parent="1">
          <mxGeometry x="455" y="460" width="120" height="60" as="geometry" />
        </mxCell>
        <mxCell id="9piBWF579ToOeGklcdrz-18" value="" style="endArrow=classic;html=1;rounded=0;exitX=-0.023;exitY=0.613;exitDx=0;exitDy=0;entryX=1;entryY=0.25;entryDx=0;entryDy=0;exitPerimeter=0;" edge="1" parent="1" source="9piBWF579ToOeGklcdrz-17">
          <mxGeometry width="50" height="50" relative="1" as="geometry">
            <mxPoint x="390" y="490" as="sourcePoint" />
            <mxPoint x="280" y="498" as="targetPoint" />
          </mxGeometry>
        </mxCell>
        <mxCell id="9piBWF579ToOeGklcdrz-21" value="receipt:string" style="text;strokeColor=none;align=center;fillColor=none;html=1;verticalAlign=middle;whiteSpace=wrap;rounded=0;" vertex="1" parent="1">
          <mxGeometry x="320" y="510" width="80" height="30" as="geometry" />
        </mxCell>
        <mxCell id="9piBWF579ToOeGklcdrz-22" value="" style="endArrow=classic;html=1;rounded=0;entryX=0;entryY=0.25;entryDx=0;entryDy=0;exitX=1.022;exitY=0.811;exitDx=0;exitDy=0;exitPerimeter=0;" edge="1" parent="1" target="9piBWF579ToOeGklcdrz-24">
          <mxGeometry width="50" height="50" relative="1" as="geometry">
            <mxPoint x="281" y="376" as="sourcePoint" />
            <mxPoint x="408" y="380" as="targetPoint" />
          </mxGeometry>
        </mxCell>
        <mxCell id="9piBWF579ToOeGklcdrz-24" value="genAllReceipt" style="rounded=1;whiteSpace=wrap;html=1;" vertex="1" parent="1">
          <mxGeometry x="530" y="360" width="120" height="60" as="geometry" />
        </mxCell>
        <mxCell id="9piBWF579ToOeGklcdrz-25" value="" style="endArrow=classic;html=1;rounded=0;exitX=-0.023;exitY=0.613;exitDx=0;exitDy=0;entryX=1;entryY=0.25;entryDx=0;entryDy=0;exitPerimeter=0;" edge="1" parent="1" source="9piBWF579ToOeGklcdrz-24">
          <mxGeometry width="50" height="50" relative="1" as="geometry">
            <mxPoint x="388" y="390" as="sourcePoint" />
            <mxPoint x="278" y="398" as="targetPoint" />
          </mxGeometry>
        </mxCell>
        <mxCell id="9piBWF579ToOeGklcdrz-27" value="allReceipt: receiptItem[]" style="text;strokeColor=none;align=center;fillColor=none;html=1;verticalAlign=middle;whiteSpace=wrap;rounded=0;" vertex="1" parent="1">
          <mxGeometry x="300" y="400" width="170" height="30" as="geometry" />
        </mxCell>
        <mxCell id="9piBWF579ToOeGklcdrz-28" value="allItems: item[],allPromotions: Promotion[]" style="text;strokeColor=none;align=center;fillColor=none;html=1;verticalAlign=middle;whiteSpace=wrap;rounded=0;" vertex="1" parent="1">
          <mxGeometry x="290" y="350" width="230" height="30" as="geometry" />
        </mxCell>
      </root>
    </mxGraphModel>
  </diagram>
</mxfile>
